<?xml version="1.0" encoding="UTF-8" standalone="no"?>
<!DOCTYPE svg PUBLIC "-//W3C//DTD SVG 1.1//EN" "http://www.w3.org/Graphics/SVG/1.1/DTD/svg11.dtd"
[
<!ATTLIST g
  xmlns:vectornator CDATA #FIXED "http://vectornator.io"
  vectornator:layerName CDATA #IMPLIED >
<!ATTLIST g
  xmlns:vectornator CDATA #FIXED "http://vectornator.io"
  vectornator:mask CDATA #IMPLIED >
<!ATTLIST text
  xmlns:vectornator CDATA #FIXED "http://vectornator.io"
  vectornator:width CDATA #IMPLIED >

<!ATTLIST path
  xmlns:vectornator CDATA #FIXED "http://vectornator.io"
  vectornator:blendMode CDATA #IMPLIED >
<!ATTLIST path
  xmlns:vectornator CDATA #FIXED "http://vectornator.io"
  vectornator:shadowColor CDATA #IMPLIED >
<!ATTLIST path
  xmlns:vectornator CDATA #FIXED "http://vectornator.io"
  vectornator:shadowOpacity CDATA #IMPLIED >
<!ATTLIST path
  xmlns:vectornator CDATA #FIXED "http://vectornator.io"
  vectornator:shadowRadius CDATA #IMPLIED >
<!ATTLIST path
  xmlns:vectornator CDATA #FIXED "http://vectornator.io"
  vectornator:shadowOffset CDATA #IMPLIED >
<!ATTLIST path
  xmlns:vectornator CDATA #FIXED "http://vectornator.io"
  vectornator:shadowAngle CDATA #IMPLIED >

<!ATTLIST image
  xmlns:vectornator CDATA #FIXED "http://vectornator.io"
  vectornator:blendMode CDATA #IMPLIED >
<!ATTLIST image
  xmlns:vectornator CDATA #FIXED "http://vectornator.io"
  vectornator:shadowColor CDATA #IMPLIED >
<!ATTLIST image
  xmlns:vectornator CDATA #FIXED "http://vectornator.io"
  vectornator:shadowOpacity CDATA #IMPLIED >
<!ATTLIST image
  xmlns:vectornator CDATA #FIXED "http://vectornator.io"
  vectornator:shadowRadius CDATA #IMPLIED >
<!ATTLIST image
  xmlns:vectornator CDATA #FIXED "http://vectornator.io"
  vectornator:shadowOffset CDATA #IMPLIED >
<!ATTLIST image
  xmlns:vectornator CDATA #FIXED "http://vectornator.io"
  vectornator:shadowAngle CDATA #IMPLIED >

<!ATTLIST g
  xmlns:vectornator CDATA #FIXED "http://vectornator.io"
  vectornator:blendMode CDATA #IMPLIED >
<!ATTLIST g
  xmlns:vectornator CDATA #FIXED "http://vectornator.io"
  vectornator:shadowColor CDATA #IMPLIED >
<!ATTLIST g
  xmlns:vectornator CDATA #FIXED "http://vectornator.io"
  vectornator:shadowOpacity CDATA #IMPLIED >
<!ATTLIST g
  xmlns:vectornator CDATA #FIXED "http://vectornator.io"
  vectornator:shadowRadius CDATA #IMPLIED >
<!ATTLIST g
  xmlns:vectornator CDATA #FIXED "http://vectornator.io"
  vectornator:shadowOffset CDATA #IMPLIED >
<!ATTLIST g
  xmlns:vectornator CDATA #FIXED "http://vectornator.io"
  vectornator:shadowAngle CDATA #IMPLIED >

<!ENTITY % SVG.filter.extra.content  "| feDropShadow" >
<!ELEMENT feDropShadow EMPTY>
<!ATTLIST feDropShadow
  xmlns:svg CDATA #FIXED "http://www.w3.org/Graphics/SVG/1.1/DTD/svg11.dtd"
  dx CDATA #IMPLIED>
<!ATTLIST feDropShadow
  xmlns:svg CDATA #FIXED "http://www.w3.org/Graphics/SVG/1.1/DTD/svg11.dtd"
  dy CDATA #IMPLIED>
<!ATTLIST feDropShadow
  xmlns:svg CDATA #FIXED "http://www.w3.org/Graphics/SVG/1.1/DTD/svg11.dtd"
  stdDeviation CDATA #IMPLIED>
<!ATTLIST feDropShadow
  xmlns:svg CDATA #FIXED "http://www.w3.org/Graphics/SVG/1.1/DTD/svg11.dtd"
  flood-opacity CDATA #IMPLIED>
<!ATTLIST feDropShadow
  xmlns:svg CDATA #FIXED "http://www.w3.org/Graphics/SVG/1.1/DTD/svg11.dtd"
  in CDATA #IMPLIED>
<!ATTLIST feDropShadow
  xmlns:svg CDATA #FIXED "http://www.w3.org/Graphics/SVG/1.1/DTD/svg11.dtd"
  result CDATA #IMPLIED>
<!ATTLIST feDropShadow
  xmlns:svg CDATA #FIXED "http://www.w3.org/Graphics/SVG/1.1/DTD/svg11.dtd"
  flood-color CDATA #IMPLIED>
]
>
<!-- Created with Vectornator (http://vectornator.io/) -->
<svg height="100%" stroke-miterlimit="10" style="fill-rule:nonzero;clip-rule:evenodd;stroke-linecap:round;stroke-linejoin:round;" version="1.1" viewBox="0 0 1024 1024" width="100%" xml:space="preserve" xmlns="http://www.w3.org/2000/svg" xmlns:vectornator="http://vectornator.io" xmlns:xlink="http://www.w3.org/1999/xlink">
<defs>
<linearGradient gradientTransform="matrix(1 0 0 1 0 0)" gradientUnits="userSpaceOnUse" id="LinearGradient" x1="289.201" x2="356.853" y1="668.737" y2="512">
<stop offset="0" stop-color="#000000" stop-opacity="0.0813788"/>
<stop offset="1" stop-color="#000000" stop-opacity="0.35149"/>
</linearGradient>
<linearGradient gradientTransform="matrix(-1 0 0 1 1024 0)" gradientUnits="userSpaceOnUse" id="LinearGradient_2" x1="289.201" x2="319.636" y1="668.737" y2="489.357">
<stop offset="0" stop-color="#000000" stop-opacity="0.0813788"/>
<stop offset="1" stop-color="#000000" stop-opacity="0.35149"/>
</linearGradient>
<linearGradient gradientTransform="matrix(-1 0 0 1 1024 0)" gradientUnits="userSpaceOnUse" id="LinearGradient_3" x1="298.03" x2="343.03" y1="512" y2="415.721">
<stop offset="0" stop-color="#000000" stop-opacity="0.0813788"/>
<stop offset="1" stop-color="#1e3905" stop-opacity="0.212173"/>
</linearGradient>
<linearGradient gradientTransform="matrix(1 0 0 1 0 0)" gradientUnits="userSpaceOnUse" id="LinearGradient_4" x1="300.97" x2="331.97" y1="512" y2="404.721">
<stop offset="0" stop-color="#000000" stop-opacity="0.0813788"/>
<stop offset="1" stop-color="#1e3905" stop-opacity="0.244728"/>
</linearGradient>
</defs>
<g id="Layer-1" vectornator:layerName="Layer 1">
<path d="M955.405 768L512 1024L68.595 768L68.595 256L955.405 256L955.405 768Z" fill="#565656" fill-rule="evenodd" opacity="1" stroke="none"/>
<path d="M68.595 768L512 1024L512 512L68.595 256L68.595 768Z" fill="#636363" fill-rule="evenodd" opacity="1" stroke="none"/>
<path d="M512 768L622.851 704L622.851 768L512 832L512 768Z" fill="#494949" fill-rule="evenodd" opacity="1" stroke="none"/>
<path d="M789.128 608L899.979 544L899.979 608L789.128 672L789.128 608Z" fill="#414141" fill-rule="evenodd" opacity="1" stroke="none"/>
<path d="M595.138 848L705.99 784L705.99 848L595.138 912L595.138 848Z" fill="#404040" fill-rule="evenodd" opacity="1" stroke="none"/>
<path d="M816.841 752L927.692 688L927.692 752L816.841 816L816.841 752Z" fill="#4a4a4a" fill-rule="evenodd" opacity="1" stroke="none"/>
<path d="M678.277 640L844.554 544L844.554 608L678.277 704L678.277 640Z" fill="#4a4a4a" fill-rule="evenodd" opacity="1" stroke="none"/>
<path d="M456.574 736L512 768L512 832L456.574 800L456.574 736Z" fill="#595959" fill-rule="evenodd" opacity="1" stroke="none"/>
<path d="M290.298 800L401.149 864L401.149 928L290.298 864L290.298 800Z" fill="#595959" fill-rule="evenodd" opacity="1" stroke="none"/>
<path d="M234.872 640L345.723 704L345.723 768L234.872 704L234.872 640Z" fill="#4f4f4f" fill-rule="evenodd" opacity="1" stroke="none"/>
<path d="M151.733 560L262.585 624L262.585 688L151.733 624L151.733 560Z" fill="#595959" fill-rule="evenodd" opacity="1" stroke="none"/>
<path d="M68.595 640L151.733 688L151.733 752L68.595 704L68.595 640Z" fill="#595959" fill-rule="evenodd" opacity="1" stroke="none"/>
<path d="M68.595 448L96.3078 464L96.3078 528L68.595 512L68.595 448Z" fill="#515151" fill-rule="evenodd" opacity="1" stroke="none"/>
<path d="M650.564 784L761.415 720L761.415 784L650.564 848L650.564 784Z" fill="#474747" fill-rule="evenodd" opacity="1" stroke="none"/>
</g>
<g id="Layer-3" vectornator:layerName="Layer 3">
<path d="M68.595 768L512 1024L512 512L68.595 256L68.595 768Z" fill="url(#LinearGradient)" fill-rule="evenodd" opacity="1" stroke="none"/>
<path d="M955.405 768L512 1024L512 512L955.405 256L955.405 768Z" fill="url(#LinearGradient_2)" fill-rule="evenodd" opacity="1" stroke="none"/>
</g>
<g id="Layer-2" vectornator:layerName="Layer 2">
<path d="M512 480L927.692 240L955.405 256L955.405 384L899.979 416L899.979 480L789.128 544L789.813 479.605L733.703 512L733.703 576L678.277 608L678.277 544L567.426 608L567.426 672L512 704L512 640L512 480Z" fill="#74a500" fill-rule="evenodd" opacity="1" stroke="none"/>
<path d="M68.595 256L96.3078 240L512 480L512 704L456.574 672L456.574 608L401.149 576L401.149 640L290.298 576L290.298 512L234.872 480L234.872 544L124.021 480L124.021 416L68.595 384L68.595 256Z" fill="#8abb14" fill-rule="evenodd" opacity="1" stroke="none"/>
<path d="M512 2.05549e-05L955.405 256L512 512L68.595 256L512 2.05549e-05Z" fill="#8ec115" fill-rule="evenodd" opacity="1" stroke="none"/>
</g>
<g id="Layer-5" vectornator:layerName="Layer 5"/>
<g id="Layer-4" vectornator:layerName="Layer 4">
<path d="M955.405 768L512 1024L512 512L955.405 256L955.405 768Z" fill="url(#LinearGradient_3)" fill-rule="evenodd" opacity="1" stroke="none"/>
<path d="M68.595 768L512 1024L512 512L68.595 256L68.595 768Z" fill="url(#LinearGradient_4)" fill-rule="evenodd" opacity="1" stroke="none"/>
</g>
</svg>
